<?xml version="1.0" encoding="utf-8"?>
<!-- Uploaded to: SVG Repo, www.svgrepo.com, Generator: SVG Repo Mixer Tools -->
<svg width="800px" height="800px" viewBox="0 0 1024 1024" class="icon"  version="1.1" xmlns="http://www.w3.org/2000/svg"><path d="M756.24448 605.47584l-68.98688 41.52832c-16.72192 10.13248-22.15424 32-12.0832 48.78336l48.91136 81.23392c0.35328 0.60928 0.73728 1.21344 1.152 1.792-28.6464 61.25056-74.2656 111.82592-132.79744 146.95936-77.84448 46.74048-169.21088 60.35968-257.32096 38.36416-88.07424-21.99552-162.33984-76.9792-209.04448-154.82368-46.74048-77.84448-60.35968-169.2416-38.39488-257.32096 21.99552-88.10496 76.9792-162.33984 154.82368-209.0752 160.70656-96.45056 369.9456-44.24704 466.42688 116.4288a340.5056 340.5056 0 0 1 47.31392 146.12992z m-270.33088 142.80704c62.81728-37.72416 83.24608-119.53152 45.52192-182.3488-23.87968-39.80288-67.584-64.512-114.03264-64.512-24.0384 0-47.6672 6.58432-68.352 18.99008-62.78656 37.72416-83.21536 119.53152-45.52192 182.35392 23.87968 39.80288 67.584 64.512 114.03264 64.512a132.69504 132.69504 0 0 0 68.352-18.9952z" fill="#8B87C1" /><path d="M729.5488 53.5296l95.84128 159.23712-42.55232 25.60512c-0.128 0.03072-0.256 0.128-0.384 0.18944-0.09728 0.06144-0.22528 0.128-0.31744 0.22528l-42.61376 25.60512-95.81056-159.23712 85.8368-51.62496z" fill="#FFB578" /><path d="M757.79584 746.1888l-39.48032-65.56672 65.56672-39.4752 39.48032 65.56672-65.56672 39.4752z" fill="#FF4893" /><path d="M978.20672 524.75392c0.03072-0.09728 0-0.18944 0-0.28672a22.15936 22.15936 0 0 0-2.62144-8.31488 7.11168 7.11168 0 0 0-0.44544-0.82944l-150.41536-249.9328 31.68256-19.05152a35.49696 35.49696 0 0 0 16.14336-21.89824 35.3792 35.3792 0 0 0-4.06016-26.88512L763.18208 22.58432a35.74784 35.74784 0 0 0-30.49984-17.26464 35.52768 35.52768 0 0 0-18.28864 5.08416l-101.59616 61.1584a35.34848 35.34848 0 0 0-16.20992 21.86752 35.328 35.328 0 0 0 4.02944 26.91584l105.33888 175.09376a35.7632 35.7632 0 0 0 30.43328 17.16736 35.5328 35.5328 0 0 0 18.35008-5.11488l31.616-19.0208 141.91104 235.83744-96.86528 109.04576-13.93664-23.14752a35.93216 35.93216 0 0 0-17.19808-14.67392 385.85344 385.85344 0 0 0-52.97152-159.2064C638.11584 254.4896 401.32096 195.3792 219.48416 304.55296 131.37408 357.43232 69.16608 441.4464 44.2624 541.1584c-24.87296 99.68128-9.46176 203.10016 43.4432 291.1744 52.87936 88.10496 136.89344 150.3488 236.5696 175.25248a387.46112 387.46112 0 0 0 93.85984 11.60704c68.89472 0 136.76544-18.66752 197.34528-55.05024 68.224-40.94976 120.97024-100.48 153.1648-172.6976a32.3584 32.3584 0 0 0 4.28544-2.17088l81.36192-48.97792c16.72192-10.13248 22.15424-32 12.11392-48.78336l-10.8032-17.96608 116.52608-131.2 0.54272-0.60928c0.256-0.28672 0.54272-0.60928 0.768-0.92672a19.8656 19.8656 0 0 0 1.34144-1.88416c0.256-0.35328 0.44544-0.70144 0.67072-1.08544 0.512-0.86528 0.92672-1.792 1.28-2.68288 0.15872-0.41472 0.31744-0.82944 0.44544-1.24928 0.31744-0.95744 0.57344-1.88416 0.73728-2.84672 0.09728-0.384 0.15872-0.768 0.18944-1.152a11.9296 11.9296 0 0 0 0.128-1.12128c0.06656-0.64 0.09728-1.24928 0.09728-1.88416v-0.06144a14.68416 14.68416 0 0 0-0.12288-2.08896z m-195.36384-286.37696c-0.128 0.03072-0.256 0.128-0.384 0.18944-0.09728 0.06656-0.22528 0.128-0.31744 0.22528l-42.61376 25.60512-95.81056-159.23712 85.8368-51.63008 95.84128 159.23712-42.55232 25.61024z m-18.74944 395.14624z m-38.8608 145.29024c-28.6464 61.25056-74.2656 111.82592-132.79744 146.95936-77.84448 46.74048-169.21088 60.35968-257.32096 38.36416-88.07424-21.99552-162.33984-76.9792-209.04448-154.8288-46.74048-77.84448-60.35968-169.2416-38.39488-257.32096 21.99552-88.10496 76.9792-162.33984 154.8288-209.0752 160.70656-96.45056 369.9456-44.24704 466.42688 116.4288a340.48512 340.48512 0 0 1 47.31392 146.12992l-68.98688 41.52832c-16.72192 10.13248-22.15424 32-12.0832 48.78336l48.91136 81.23392c0.34816 0.62464 0.73216 1.21856 1.14688 1.79712z m35.968-27.68384l0 0z m-3.456-4.95616l-39.48032-65.56672 65.56672-39.48032 39.48032 65.56672-65.56672 39.48032z m84.97664-25.03168z" fill="#4F46A3" /><path d="M417.40288 501.41696a132.9152 132.9152 0 0 0-68.352 18.99008c-62.78656 37.72416-83.21536 119.53152-45.52192 182.3488 23.87968 39.80288 67.584 64.512 114.03264 64.512a132.6592 132.6592 0 0 0 68.352-18.99008c62.81728-37.72416 83.24608-119.53152 45.52192-182.3488-23.87968-39.79776-67.57888-64.512-114.03264-64.512z m88.54528 66.62656z m-164.02432 111.69792c-25.00096-41.68704-11.47904-95.93856 30.17728-120.97024a87.89504 87.89504 0 0 1 45.30176-12.5952c31.29856 0 59.55584 15.98464 75.66848 42.77248 25.00096 41.68704 11.47904 95.93856-30.17728 120.97024a88.10496 88.10496 0 0 1-45.33248 12.5952c-31.29344 0-59.55584-15.98464-75.63776-42.77248z m91.93984-154.71104z m-126.80704 114.17088z m220.83072 0.93696a110.88896 110.88896 0 0 1-0.93184-21.34016 109.90592 109.90592 0 0 0 0.93184 21.34016z" fill="#4F46A3" /><path d="M493.07648 588.94848c25.00096 41.68704 11.47904 95.93856-30.17728 120.97024a88.10496 88.10496 0 0 1-45.33248 12.5952c-31.29856 0-59.55584-15.98464-75.63776-42.77248-25.00096-41.68704-11.47904-95.93856 30.17728-120.97024a87.89504 87.89504 0 0 1 45.30176-12.5952c31.29344 0 59.55584 15.98464 75.66848 42.77248zM447.488 684.34432c27.55584-16.52736 36.54144-52.4288 20.01408-80.0512a58.74688 58.74688 0 0 0-50.03264-28.2624c-10.55232 0-20.91008 2.87744-30.01856 8.30976-27.52512 16.55808-36.47488 52.4288-19.94752 80.0512a58.70592 58.70592 0 0 0 50.03264 28.2624 57.99936 57.99936 0 0 0 29.952-8.30976z" fill="#5FCEFF" /><path d="M467.49696 604.29312a58.74688 58.74688 0 0 0-50.03264-28.2624c-10.5472 0-20.90496 2.87744-30.01856 8.30976-27.52512 16.55808-36.47488 52.4288-19.94752 80.0512a58.70592 58.70592 0 0 0 50.03264 28.2624c10.51648 0 20.87424-2.84672 29.95712-8.30976 27.55584-16.52736 36.54144-52.4288 20.00896-80.0512z m-50.02752 16.49664a13.46048 13.46048 0 0 1 11.63776 6.5536 13.61408 13.61408 0 0 1-4.6336 18.6368c-2.14016 1.28-4.47488 1.92-6.9376 1.92a13.55776 13.55776 0 0 1-11.66848-6.52288c-3.83488-6.45632-1.75616-14.83264 4.60288-18.6368 2.17088-1.31072 4.5056-1.95072 6.99904-1.95072z m-26.82368 37.42208z m5.66272 5.17632z m52.13696-10.76736l0 0z" fill="#4F46A3" /></svg>